<mxfile host="65bd71144e">
    <diagram id="A-HZUPaiLZ8mqLaa9uVB" name="Page-1">
        <mxGraphModel dx="990" dy="1078" grid="1" gridSize="10" guides="1" tooltips="1" connect="1" arrows="1" fold="1" page="1" pageScale="1" pageWidth="850" pageHeight="1100" math="0" shadow="0">
            <root>
                <mxCell id="0"/>
                <mxCell id="1" parent="0"/>
                <mxCell id="2" value="the system registered the reply and notify user" style="rounded=1;whiteSpace=wrap;html=1;arcSize=40;fontColor=#000000;fillColor=#ffffc0;strokeColor=#ff0000;strokeWidth=3;fontSize=18;" vertex="1" parent="1">
                    <mxGeometry x="60" y="410" width="201.5" height="85" as="geometry"/>
                </mxCell>
                <mxCell id="5" value="" style="ellipse;html=1;shape=endState;fillColor=#000000;strokeColor=#ff0000;strokeWidth=3;fontFamily=Helvetica;fontSize=8;fontColor=#FFFFFF;" vertex="1" parent="1">
                    <mxGeometry x="375.5" y="415" width="30" height="30" as="geometry"/>
                </mxCell>
                <mxCell id="6" value="" style="ellipse;html=1;shape=startState;fillColor=#000000;strokeColor=#ff0000;" vertex="1" parent="1">
                    <mxGeometry x="715.12" y="280" width="40" height="40" as="geometry"/>
                </mxCell>
                <mxCell id="7" value="" style="edgeStyle=orthogonalEdgeStyle;html=1;verticalAlign=bottom;endArrow=open;endSize=8;strokeColor=#ff0000;entryX=0.5;entryY=0;entryDx=0;entryDy=0;exitX=1;exitY=0.5;exitDx=0;exitDy=0;" edge="1" parent="1" source="6" target="8">
                    <mxGeometry relative="1" as="geometry">
                        <mxPoint x="480.62" y="367" as="targetPoint"/>
                        <mxPoint x="500.62" y="285" as="sourcePoint"/>
                    </mxGeometry>
                </mxCell>
                <mxCell id="8" value="&lt;span style=&quot;font-size: 18px;&quot;&gt;admin choose an open ticket and replies to it&lt;/span&gt;" style="rounded=1;whiteSpace=wrap;html=1;arcSize=40;fontColor=#000000;fillColor=#ffffc0;strokeColor=#ff0000;strokeWidth=3;" vertex="1" parent="1">
                    <mxGeometry x="680" y="430" width="160.12" height="80" as="geometry"/>
                </mxCell>
                <mxCell id="9" value="" style="edgeStyle=orthogonalEdgeStyle;html=1;verticalAlign=bottom;endArrow=open;endSize=8;strokeColor=#ff0000;entryX=0.5;entryY=1;entryDx=0;entryDy=0;exitX=0;exitY=0.5;exitDx=0;exitDy=0;" edge="1" parent="1" source="8" target="10">
                    <mxGeometry relative="1" as="geometry">
                        <mxPoint x="319.62" y="397" as="targetPoint"/>
                        <Array as="points">
                            <mxPoint x="650" y="470"/>
                            <mxPoint x="650" y="495"/>
                            <mxPoint x="578" y="495"/>
                        </Array>
                    </mxGeometry>
                </mxCell>
                <mxCell id="10" value="checks if the credentials of user exists or are valid" style="rounded=1;whiteSpace=wrap;html=1;arcSize=40;fontColor=#000000;fillColor=#ffffc0;strokeColor=#ff0000;strokeWidth=3;fontSize=18;" vertex="1" parent="1">
                    <mxGeometry x="495.12" y="355" width="165.13" height="100" as="geometry"/>
                </mxCell>
                <mxCell id="11" value="" style="rhombus;whiteSpace=wrap;html=1;fillColor=#ffffc0;strokeColor=#ff0000;strokeWidth=3;fontSize=18;" vertex="1" parent="1">
                    <mxGeometry x="465.12" y="245" width="30" height="40" as="geometry"/>
                </mxCell>
                <mxCell id="12" value="no" style="edgeStyle=orthogonalEdgeStyle;html=1;align=left;verticalAlign=bottom;endArrow=open;endSize=8;strokeColor=#ff0000;exitX=0.5;exitY=1;exitDx=0;exitDy=0;labelBackgroundColor=none;entryX=0;entryY=0.5;entryDx=0;entryDy=0;" edge="1" parent="1" source="11">
                    <mxGeometry x="-0.8395" y="5" relative="1" as="geometry">
                        <mxPoint x="485.1199999999999" y="558" as="targetPoint"/>
                        <mxPoint x="480.12" y="295" as="sourcePoint"/>
                        <Array as="points">
                            <mxPoint x="480.12" y="481"/>
                            <mxPoint x="460.12" y="481"/>
                            <mxPoint x="460.12" y="558"/>
                        </Array>
                        <mxPoint as="offset"/>
                    </mxGeometry>
                </mxCell>
                <mxCell id="13" value="" style="edgeStyle=orthogonalEdgeStyle;html=1;verticalAlign=bottom;endArrow=open;endSize=8;strokeColor=#ff0000;entryX=1;entryY=0.5;entryDx=0;entryDy=0;exitX=0.5;exitY=0;exitDx=0;exitDy=0;" edge="1" parent="1" source="10" target="11">
                    <mxGeometry relative="1" as="geometry">
                        <mxPoint x="422.6300000000001" y="385.95" as="targetPoint"/>
                        <Array as="points">
                            <mxPoint x="578" y="265"/>
                        </Array>
                        <mxPoint x="580.12" y="373" as="sourcePoint"/>
                    </mxGeometry>
                </mxCell>
                <mxCell id="14" value="check if the access token is expired" style="rounded=1;whiteSpace=wrap;html=1;arcSize=40;fontColor=#000000;fillColor=#ffffc0;strokeColor=#ff0000;strokeWidth=3;fontSize=18;" vertex="1" parent="1">
                    <mxGeometry x="485.12" y="513" width="165.13" height="70" as="geometry"/>
                </mxCell>
                <mxCell id="15" value="" style="rhombus;whiteSpace=wrap;html=1;fillColor=#ffffc0;strokeColor=#ff0000;strokeWidth=3;fontSize=18;" vertex="1" parent="1">
                    <mxGeometry x="720.12" y="665.0000000000001" width="30" height="40" as="geometry"/>
                </mxCell>
                <mxCell id="16" value="yes" style="edgeStyle=orthogonalEdgeStyle;html=1;align=left;verticalAlign=bottom;endArrow=open;endSize=8;strokeColor=#ff0000;exitX=0.5;exitY=1;exitDx=0;exitDy=0;labelBackgroundColor=none;entryX=1;entryY=0.5;entryDx=0;entryDy=0;" edge="1" parent="1" source="15" target="20">
                    <mxGeometry x="-0.83" y="3" relative="1" as="geometry">
                        <mxPoint x="807.25" y="822.9300000000001" as="targetPoint"/>
                        <mxPoint x="994" y="912.55" as="sourcePoint"/>
                        <Array as="points">
                            <mxPoint x="735.12" y="725"/>
                        </Array>
                        <mxPoint as="offset"/>
                    </mxGeometry>
                </mxCell>
                <mxCell id="17" value="no" style="edgeStyle=orthogonalEdgeStyle;html=1;align=left;verticalAlign=top;endArrow=open;endSize=8;strokeColor=#ff0000;exitX=0;exitY=0.5;exitDx=0;exitDy=0;labelBackgroundColor=none;entryX=1;entryY=0.5;entryDx=0;entryDy=0;" edge="1" parent="1" source="15" target="19">
                    <mxGeometry x="-0.6886" y="-26" relative="1" as="geometry">
                        <mxPoint x="540.12" y="703" as="targetPoint"/>
                        <mxPoint x="977.1199999999999" y="948.9300000000001" as="sourcePoint"/>
                        <mxPoint as="offset"/>
                        <Array as="points">
                            <mxPoint x="640.12" y="685"/>
                            <mxPoint x="640.12" y="645"/>
                        </Array>
                    </mxGeometry>
                </mxCell>
                <mxCell id="18" value="" style="edgeStyle=orthogonalEdgeStyle;html=1;verticalAlign=bottom;endArrow=open;endSize=8;strokeColor=#ff0000;entryX=0.5;entryY=0;entryDx=0;entryDy=0;exitX=1;exitY=0.5;exitDx=0;exitDy=0;" edge="1" parent="1" source="14" target="15">
                    <mxGeometry relative="1" as="geometry">
                        <mxPoint x="744.7600000000001" y="655.88" as="targetPoint"/>
                        <Array as="points">
                            <mxPoint x="650.12" y="553"/>
                            <mxPoint x="700.12" y="553"/>
                            <mxPoint x="700.12" y="625"/>
                            <mxPoint x="735.12" y="625"/>
                        </Array>
                        <mxPoint x="724.25" y="671.9300000000001" as="sourcePoint"/>
                    </mxGeometry>
                </mxCell>
                <mxCell id="19" value="error message" style="rounded=1;whiteSpace=wrap;html=1;arcSize=40;fontColor=#000000;fillColor=#ffffc0;strokeColor=#ff0000;strokeWidth=3;fontSize=18;" vertex="1" parent="1">
                    <mxGeometry x="440.12" y="625" width="165.13" height="40" as="geometry"/>
                </mxCell>
                <mxCell id="20" value="need refresh" style="rounded=1;whiteSpace=wrap;html=1;arcSize=40;fontColor=#000000;fillColor=#ffffc0;strokeColor=#ff0000;strokeWidth=3;fontSize=18;" vertex="1" parent="1">
                    <mxGeometry x="431" y="705" width="154.25" height="40" as="geometry"/>
                </mxCell>
                <mxCell id="21" value="yes" style="edgeStyle=orthogonalEdgeStyle;html=1;align=left;verticalAlign=top;endArrow=open;endSize=8;strokeColor=#ff0000;exitX=0;exitY=0.5;exitDx=0;exitDy=0;labelBackgroundColor=none;entryX=1;entryY=0.5;entryDx=0;entryDy=0;" edge="1" parent="1" source="11" target="25">
                    <mxGeometry x="-0.6815" y="-30" relative="1" as="geometry">
                        <mxPoint x="367" y="240" as="targetPoint"/>
                        <mxPoint x="470.5" y="245" as="sourcePoint"/>
                        <mxPoint as="offset"/>
                        <Array as="points">
                            <mxPoint x="410" y="265"/>
                            <mxPoint x="410" y="120"/>
                        </Array>
                    </mxGeometry>
                </mxCell>
                <mxCell id="22" value="" style="edgeStyle=orthogonalEdgeStyle;html=1;verticalAlign=bottom;endArrow=none;endSize=8;strokeColor=#ff0000;labelBackgroundColor=none;fontFamily=Helvetica;fontSize=18;fontColor=#FFFFFF;exitX=0;exitY=0.5;exitDx=0;exitDy=0;entryX=1;entryY=0.5;entryDx=0;entryDy=0;" edge="1" parent="1" source="19" target="5">
                    <mxGeometry relative="1" as="geometry">
                        <mxPoint x="422" y="465" as="targetPoint"/>
                        <mxPoint x="355.5" y="510" as="sourcePoint"/>
                    </mxGeometry>
                </mxCell>
                <mxCell id="23" value="" style="edgeStyle=orthogonalEdgeStyle;html=1;verticalAlign=bottom;endArrow=none;endSize=8;strokeColor=#ff0000;labelBackgroundColor=none;fontFamily=Helvetica;fontSize=18;fontColor=#FFFFFF;exitX=0;exitY=0.5;exitDx=0;exitDy=0;entryX=0.5;entryY=1;entryDx=0;entryDy=0;" edge="1" parent="1" source="20" target="5">
                    <mxGeometry relative="1" as="geometry">
                        <mxPoint x="345.5" y="440.5" as="targetPoint"/>
                        <mxPoint x="380.12" y="655.5" as="sourcePoint"/>
                        <Array as="points">
                            <mxPoint x="391" y="725"/>
                        </Array>
                    </mxGeometry>
                </mxCell>
                <mxCell id="24" value="" style="edgeStyle=orthogonalEdgeStyle;html=1;verticalAlign=bottom;endArrow=none;endSize=8;strokeColor=#ff0000;labelBackgroundColor=none;fontFamily=Helvetica;fontSize=18;fontColor=#FFFFFF;exitX=0;exitY=0.5;exitDx=0;exitDy=0;entryX=1;entryY=0.5;entryDx=0;entryDy=0;" edge="1" parent="1" source="5" target="2">
                    <mxGeometry relative="1" as="geometry">
                        <mxPoint x="335.13" y="590" as="targetPoint"/>
                        <mxPoint x="264.64999999999986" y="725" as="sourcePoint"/>
                        <Array as="points">
                            <mxPoint x="350" y="430"/>
                            <mxPoint x="350" y="453"/>
                        </Array>
                    </mxGeometry>
                </mxCell>
                <mxCell id="25" value="checks if the user is a valid admin" style="rounded=1;whiteSpace=wrap;html=1;arcSize=40;fontColor=#000000;fillColor=#ffffc0;strokeColor=#ff0000;strokeWidth=3;fontSize=18;" vertex="1" parent="1">
                    <mxGeometry x="150" y="90" width="175.13" height="70" as="geometry"/>
                </mxCell>
                <mxCell id="26" value="" style="rhombus;whiteSpace=wrap;html=1;fillColor=#ffffc0;strokeColor=#ff0000;strokeWidth=3;fontSize=18;" vertex="1" parent="1">
                    <mxGeometry x="179.99" y="255" width="30" height="40" as="geometry"/>
                </mxCell>
                <mxCell id="27" value="" style="edgeStyle=orthogonalEdgeStyle;html=1;verticalAlign=bottom;endArrow=open;endSize=8;strokeColor=#ff0000;entryX=0.5;entryY=0;entryDx=0;entryDy=0;exitX=0.5;exitY=1;exitDx=0;exitDy=0;" edge="1" parent="1" source="25" target="26">
                    <mxGeometry relative="1" as="geometry">
                        <mxPoint x="137.5000000000001" y="395.95" as="targetPoint"/>
                        <Array as="points">
                            <mxPoint x="238" y="220"/>
                            <mxPoint x="195" y="220"/>
                        </Array>
                        <mxPoint x="318.0550000000002" y="365" as="sourcePoint"/>
                    </mxGeometry>
                </mxCell>
                <mxCell id="28" value="yes" style="edgeStyle=orthogonalEdgeStyle;html=1;align=left;verticalAlign=top;endArrow=open;endSize=8;strokeColor=#ff0000;exitX=0;exitY=0.5;exitDx=0;exitDy=0;labelBackgroundColor=none;entryX=0.5;entryY=0;entryDx=0;entryDy=0;" edge="1" parent="1" source="26" target="2">
                    <mxGeometry x="-0.6815" y="-30" relative="1" as="geometry">
                        <mxPoint x="290" y="370" as="targetPoint"/>
                        <mxPoint x="185.37" y="255" as="sourcePoint"/>
                        <mxPoint as="offset"/>
                        <Array as="points">
                            <mxPoint x="125" y="275"/>
                            <mxPoint x="125" y="320"/>
                            <mxPoint x="160" y="320"/>
                            <mxPoint x="160" y="365"/>
                        </Array>
                    </mxGeometry>
                </mxCell>
                <mxCell id="29" value="no" style="edgeStyle=orthogonalEdgeStyle;html=1;align=left;verticalAlign=bottom;endArrow=open;endSize=8;strokeColor=#ff0000;exitX=1;exitY=0.5;exitDx=0;exitDy=0;labelBackgroundColor=none;entryX=0.5;entryY=0;entryDx=0;entryDy=0;" edge="1" parent="1" source="26" target="5">
                    <mxGeometry x="-0.9546" y="5" relative="1" as="geometry">
                        <mxPoint x="314.9599999999999" y="513" as="targetPoint"/>
                        <mxPoint x="309.9599999999999" y="240" as="sourcePoint"/>
                        <Array as="points">
                            <mxPoint x="310" y="275"/>
                            <mxPoint x="310" y="350"/>
                            <mxPoint x="290" y="350"/>
                            <mxPoint x="290" y="310"/>
                            <mxPoint x="390" y="310"/>
                        </Array>
                        <mxPoint as="offset"/>
                    </mxGeometry>
                </mxCell>
            </root>
        </mxGraphModel>
    </diagram>
</mxfile>